<svg width="172" height="40" viewBox="0 0 172 40" fill="none" xmlns="http://www.w3.org/2000/svg">
<path fill-rule="evenodd" clip-rule="evenodd" d="M50.4866 15.2356C49.9931 14.6302 49.3871 14.1654 48.6684 13.8411C47.9497 13.5167 47.1184 13.3547 46.1745 13.3547C45.2305 13.3547 44.3563 13.5384 43.5517 13.906C42.7473 14.2735 42.05 14.787 41.46 15.4464C40.87 16.1057 40.4088 16.8895 40.0762 17.7975C39.7437 18.7056 39.5775 19.6893 39.5775 20.7486C39.5775 21.8297 39.7437 22.8188 40.0762 23.716C40.4088 24.6133 40.8646 25.3915 41.4439 26.051C42.0231 26.7104 42.7044 27.2239 43.4874 27.5914C44.2705 27.9589 45.1125 28.1427 46.0135 28.1427C47.0433 28.1427 47.9551 27.9265 48.7489 27.4941C49.5427 27.0617 50.197 26.4563 50.7119 25.6781L54.8953 28.8237C53.9299 30.1858 52.7071 31.1911 51.2268 31.8397C49.7465 32.4883 48.2232 32.8127 46.6571 32.8127C44.8765 32.8127 43.2353 32.5316 41.7336 31.9694C40.2318 31.4073 38.9339 30.602 37.8398 29.5534C36.7456 28.5048 35.8928 27.2346 35.2814 25.7428C34.6699 24.2511 34.3643 22.5864 34.3643 20.7486C34.3643 18.911 34.6699 17.2462 35.2814 15.7545C35.8928 14.2627 36.7456 12.9925 37.8398 11.9439C38.9339 10.8953 40.2318 10.09 41.7336 9.5279C43.2353 8.96577 44.8765 8.68471 46.6571 8.68471C47.3007 8.68471 47.9712 8.74417 48.6684 8.86308C49.3657 8.98198 50.0522 9.17116 50.7279 9.43061C51.4038 9.69005 52.0527 10.0359 52.6748 10.4683C53.297 10.9007 53.8548 11.4304 54.3482 12.0574L50.4866 15.2356ZM57.084 7.71159H61.9111V32.2287H57.084V7.71159ZM75.2016 30.2505H75.1372C74.6009 31.0938 73.8876 31.6991 72.9973 32.0666C72.107 32.4342 71.1684 32.618 70.1815 32.618C69.4521 32.618 68.7494 32.5152 68.0737 32.3098C67.3979 32.1045 66.8025 31.7963 66.2876 31.3856C65.7728 30.9748 65.3651 30.4668 65.0648 29.8614C64.7644 29.256 64.6143 28.5534 64.6143 27.7534C64.6143 26.8454 64.7806 26.0779 65.1131 25.4509C65.4457 24.8239 65.8962 24.305 66.4647 23.8943C67.0332 23.4835 67.6821 23.1646 68.4116 22.9376C69.141 22.7106 69.8973 22.543 70.6803 22.4349C71.4634 22.3268 72.2464 22.262 73.0295 22.2403C73.8125 22.2187 74.5365 22.2079 75.2016 22.2079C75.2016 21.3431 74.896 20.6567 74.2845 20.1486C73.6731 19.6405 72.9491 19.3865 72.1124 19.3865C71.3186 19.3865 70.5945 19.554 69.9402 19.8892C69.2858 20.2243 68.7012 20.6837 68.1863 21.2674L65.6119 18.6082C66.513 17.765 67.5642 17.1326 68.7656 16.711C69.967 16.2895 71.2113 16.0786 72.4985 16.0786C73.9145 16.0786 75.0783 16.257 75.9901 16.6137C76.9018 16.9704 77.6313 17.4947 78.1784 18.1866C78.7254 18.8785 79.1062 19.727 79.3207 20.7323C79.5353 21.7377 79.6425 22.8998 79.6425 24.2185V32.2287H75.2016V30.2505ZM74.0098 25.3212C73.6451 25.3212 73.1892 25.3374 72.642 25.3699C72.095 25.4023 71.5695 25.4941 71.0652 25.6455C70.5611 25.7969 70.1321 26.0238 69.778 26.3266C69.4241 26.6292 69.2471 27.0508 69.2471 27.5913C69.2471 28.175 69.4937 28.6074 69.9872 28.8885C70.4806 29.1695 70.9955 29.3101 71.5318 29.3101C72.0038 29.3101 72.4597 29.2452 72.8995 29.1155C73.3393 28.9857 73.7309 28.802 74.0742 28.5642C74.4174 28.3264 74.6909 28.0237 74.8947 27.6561C75.0985 27.2886 75.2004 26.8563 75.2004 26.359V25.3212H74.0098ZM91.5166 21.1053C90.8079 20.2189 89.8745 19.7757 88.7164 19.7757C88.3087 19.7757 87.9122 19.873 87.5258 20.0675C87.1394 20.2621 86.9462 20.5972 86.9462 21.0728C86.9462 21.4621 87.1455 21.7485 87.5421 21.9323C87.9386 22.116 88.4429 22.2782 89.054 22.4187C89.6661 22.5592 90.3199 22.7106 91.0174 22.8727C91.7149 23.0348 92.3686 23.2889 92.9807 23.6348C93.5918 23.9808 94.0961 24.451 94.4927 25.0456C94.8902 25.64 95.0885 26.4346 95.0885 27.4291C95.0885 28.4453 94.8678 29.283 94.4286 29.9425C93.9883 30.6019 93.4261 31.1316 92.7387 31.5315C92.0524 31.9315 91.2807 32.2126 90.4226 32.3747C89.5644 32.5369 88.7164 32.618 87.8796 32.618C86.7856 32.618 85.6804 32.4612 84.565 32.1477C83.4496 31.8342 82.5057 31.2775 81.7334 30.4776L84.6616 27.2021C85.112 27.7642 85.6112 28.1912 86.1582 28.4831C86.7053 28.775 87.3438 28.9209 88.0728 28.9209C88.631 28.9209 89.1353 28.8398 89.5858 28.6776C90.0362 28.5156 90.2609 28.2182 90.2609 27.7858C90.2609 27.3751 90.0626 27.067 89.6661 26.8616C89.2685 26.6562 88.7652 26.4833 88.1531 26.3427C87.5421 26.2022 86.8873 26.0509 86.1908 25.8887C85.4933 25.7265 84.8385 25.4834 84.2274 25.159C83.6163 24.8347 83.112 24.3753 82.7149 23.7808C82.3179 23.1862 82.1196 22.3917 82.1196 21.3972C82.1196 20.4675 82.3073 19.6676 82.6826 18.9973C83.0581 18.3271 83.5513 17.7758 84.1634 17.3434C84.7744 16.911 85.477 16.5921 86.2711 16.3868C87.0642 16.1813 87.8695 16.0786 88.6839 16.0786C89.7139 16.0786 90.755 16.23 91.8054 16.5326C92.8567 16.8354 93.7474 17.3759 94.4764 18.1542L91.5166 21.1053ZM106.415 21.1053C105.707 20.2189 104.774 19.7757 103.616 19.7757C103.208 19.7757 102.812 19.873 102.425 20.0675C102.039 20.2621 101.846 20.5972 101.846 21.0728C101.846 21.4621 102.044 21.7485 102.442 21.9323C102.838 22.116 103.342 22.2782 103.954 22.4187C104.566 22.5592 105.219 22.7106 105.917 22.8727C106.614 23.0348 107.268 23.2889 107.88 23.6348C108.491 23.9808 108.996 24.451 109.392 25.0456C109.789 25.64 109.988 26.4346 109.988 27.4291C109.988 28.4453 109.767 29.283 109.328 29.9425C108.888 30.6019 108.325 31.1316 107.638 31.5315C106.952 31.9315 106.179 32.2126 105.321 32.3747C104.463 32.5369 103.616 32.618 102.779 32.618C101.685 32.618 100.58 32.4612 99.4645 32.1477C98.3491 31.8342 97.4056 31.2775 96.6328 30.4776L99.5611 27.2021C100.012 27.7642 100.511 28.1912 101.058 28.4831C101.605 28.775 102.243 28.9209 102.972 28.9209C103.531 28.9209 104.034 28.8398 104.484 28.6776C104.936 28.5156 105.16 28.2182 105.16 27.7858C105.16 27.3751 104.962 27.067 104.566 26.8616C104.168 26.6562 103.664 26.4833 103.053 26.3427C102.442 26.2022 101.787 26.0509 101.089 25.8887C100.393 25.7265 99.738 25.4834 99.1269 25.159C98.5148 24.8347 98.0115 24.3753 97.614 23.7808C97.2175 23.1862 97.0192 22.3917 97.0192 21.3972C97.0192 20.4675 97.2063 19.6676 97.5825 18.9973C97.9577 18.3271 98.4508 17.7758 99.0619 17.3434C99.674 16.911 100.377 16.5921 101.171 16.3868C101.964 16.1813 102.768 16.0786 103.583 16.0786C104.613 16.0786 105.654 16.23 106.705 16.5326C107.756 16.8354 108.647 17.3759 109.376 18.1542L106.415 21.1053ZM112.916 16.4678H117.356V18.5433H117.421C117.614 18.2623 117.867 17.9758 118.178 17.6839C118.488 17.3921 118.853 17.1272 119.272 16.8894C119.69 16.6516 120.145 16.457 120.639 16.3057C121.132 16.1543 121.658 16.0786 122.216 16.0786C123.374 16.0786 124.426 16.2787 125.369 16.6786C126.314 17.0786 127.123 17.6407 127.799 18.365C128.475 19.0892 128.995 19.9487 129.36 20.9432C129.725 21.9377 129.907 23.0294 129.907 24.2185C129.907 25.3212 129.74 26.3752 129.408 27.3805C129.075 28.3858 128.604 29.2776 127.993 30.056C127.38 30.8343 126.635 31.4559 125.756 31.9207C124.876 32.3855 123.879 32.618 122.763 32.618C121.755 32.618 120.816 32.4612 119.947 32.1477C119.079 31.8342 118.365 31.2991 117.808 30.5424H117.743V39.6228H112.916V16.4678ZM117.357 24.348C117.357 25.537 117.696 26.4991 118.371 27.2342C119.047 27.9693 119.997 28.3369 121.219 28.3369C122.442 28.3369 123.392 27.9693 124.067 27.2342C124.743 26.4991 125.081 25.537 125.081 24.348C125.081 23.1589 124.743 22.1968 124.067 21.4617C123.392 20.7266 122.442 20.359 121.219 20.359C119.997 20.359 119.047 20.7266 118.371 21.4617C117.696 22.1968 117.357 23.1589 117.357 24.348ZM132.804 7.71159H137.631V32.2287H132.804V7.71159ZM156.167 32.2287H151.533V30.0884H151.468C151.296 30.391 151.077 30.6936 150.808 30.9964C150.541 31.299 150.214 31.5693 149.827 31.8071C149.441 32.045 149.002 32.2395 148.507 32.3909C148.014 32.5422 147.479 32.6179 146.899 32.6179C145.676 32.6179 144.683 32.4287 143.922 32.0504C143.16 31.6719 142.571 31.1477 142.153 30.4775C141.734 29.8073 141.455 29.0182 141.316 28.1101C141.177 27.202 141.106 26.2183 141.106 25.1589V16.4677H145.933V24.1861C145.933 24.6401 145.949 25.1103 145.982 25.5967C146.014 26.0832 146.111 26.5318 146.272 26.9426C146.432 27.3534 146.679 27.6885 147.012 27.948C147.344 28.2074 147.821 28.3371 148.443 28.3371C149.066 28.3371 149.57 28.2236 149.956 27.9966C150.343 27.7696 150.638 27.4669 150.841 27.0885C151.045 26.7102 151.178 26.2832 151.244 25.8076C151.308 25.3319 151.34 24.8347 151.34 24.3158V16.4677H156.167V32.2287ZM168.427 21.1053C167.719 20.2189 166.786 19.7757 165.627 19.7757C165.219 19.7757 164.823 19.873 164.437 20.0675C164.05 20.2621 163.857 20.5972 163.857 21.0728C163.857 21.4621 164.056 21.7485 164.453 21.9323C164.849 22.116 165.354 22.2782 165.965 22.4187C166.577 22.5592 167.231 22.7106 167.928 22.8727C168.626 23.0348 169.279 23.2889 169.891 23.6348C170.503 23.9808 171.007 24.451 171.403 25.0456C171.801 25.64 171.999 26.4346 171.999 27.4291C171.999 28.4453 171.78 29.283 171.339 29.9425C170.899 30.6019 170.337 31.1316 169.649 31.5315C168.963 31.9315 168.191 32.2126 167.333 32.3747C166.475 32.5369 165.627 32.618 164.79 32.618C163.696 32.618 162.591 32.4612 161.476 32.1477C160.36 31.8342 159.417 31.2775 158.644 30.4776L161.572 27.2021C162.023 27.7642 162.522 28.1912 163.069 28.4831C163.616 28.775 164.255 28.9209 164.984 28.9209C165.542 28.9209 166.046 28.8398 166.497 28.6776C166.947 28.5156 167.172 28.2182 167.172 27.7858C167.172 27.3751 166.973 27.067 166.577 26.8616C166.179 26.6562 165.676 26.4833 165.064 26.3427C164.453 26.2022 163.798 26.0509 163.102 25.8887C162.404 25.7265 161.749 25.4834 161.138 25.159C160.527 24.8347 160.023 24.3753 159.625 23.7808C159.229 23.1862 159.03 22.3917 159.03 21.3972C159.03 20.4675 159.219 19.6676 159.594 18.9973C159.969 18.3271 160.462 17.7758 161.074 17.3434C161.685 16.911 162.388 16.5921 163.182 16.3868C163.975 16.1813 164.78 16.0786 165.595 16.0786C166.625 16.0786 167.666 16.23 168.717 16.5326C169.767 16.8354 170.658 17.3759 171.387 18.1542L168.427 21.1053Z" fill="black"/>
<path fill-rule="evenodd" clip-rule="evenodd" d="M50.4866 15.2356C49.9931 14.6302 49.3871 14.1654 48.6684 13.8411C47.9497 13.5167 47.1184 13.3547 46.1745 13.3547C45.2305 13.3547 44.3563 13.5384 43.5517 13.906C42.7473 14.2735 42.05 14.787 41.46 15.4464C40.87 16.1057 40.4088 16.8895 40.0762 17.7975C39.7437 18.7056 39.5775 19.6893 39.5775 20.7486C39.5775 21.8297 39.7437 22.8188 40.0762 23.716C40.4088 24.6133 40.8646 25.3915 41.4439 26.051C42.0231 26.7104 42.7044 27.2239 43.4874 27.5914C44.2705 27.9589 45.1125 28.1427 46.0135 28.1427C47.0433 28.1427 47.9551 27.9265 48.7489 27.4941C49.5427 27.0617 50.197 26.4563 50.7119 25.6781L54.8953 28.8237C53.9299 30.1858 52.7071 31.1911 51.2268 31.8397C49.7465 32.4883 48.2232 32.8127 46.6571 32.8127C44.8765 32.8127 43.2353 32.5316 41.7336 31.9694C40.2318 31.4073 38.9339 30.602 37.8398 29.5534C36.7456 28.5048 35.8928 27.2346 35.2814 25.7428C34.6699 24.2511 34.3643 22.5864 34.3643 20.7486C34.3643 18.911 34.6699 17.2462 35.2814 15.7545C35.8928 14.2627 36.7456 12.9925 37.8398 11.9439C38.9339 10.8953 40.2318 10.09 41.7336 9.5279C43.2353 8.96577 44.8765 8.68471 46.6571 8.68471C47.3007 8.68471 47.9712 8.74417 48.6684 8.86308C49.3657 8.98198 50.0522 9.17116 50.7279 9.43061C51.4038 9.69005 52.0527 10.0359 52.6748 10.4683C53.297 10.9007 53.8548 11.4304 54.3482 12.0574L50.4866 15.2356ZM57.084 7.71159H61.9111V32.2287H57.084V7.71159ZM75.2016 30.2505H75.1372C74.6009 31.0938 73.8876 31.6991 72.9973 32.0666C72.107 32.4342 71.1684 32.618 70.1815 32.618C69.4521 32.618 68.7494 32.5152 68.0737 32.3098C67.3979 32.1045 66.8025 31.7963 66.2876 31.3856C65.7728 30.9748 65.3651 30.4668 65.0648 29.8614C64.7644 29.256 64.6143 28.5534 64.6143 27.7534C64.6143 26.8454 64.7806 26.0779 65.1131 25.4509C65.4457 24.8239 65.8962 24.305 66.4647 23.8943C67.0332 23.4835 67.6821 23.1646 68.4116 22.9376C69.141 22.7106 69.8973 22.543 70.6803 22.4349C71.4634 22.3268 72.2464 22.262 73.0295 22.2403C73.8125 22.2187 74.5365 22.2079 75.2016 22.2079C75.2016 21.3431 74.896 20.6567 74.2845 20.1486C73.6731 19.6405 72.9491 19.3865 72.1124 19.3865C71.3186 19.3865 70.5945 19.554 69.9402 19.8892C69.2858 20.2243 68.7012 20.6837 68.1863 21.2674L65.6119 18.6082C66.513 17.765 67.5642 17.1326 68.7656 16.711C69.967 16.2895 71.2113 16.0786 72.4985 16.0786C73.9145 16.0786 75.0783 16.257 75.9901 16.6137C76.9018 16.9704 77.6313 17.4947 78.1784 18.1866C78.7254 18.8785 79.1062 19.727 79.3207 20.7323C79.5353 21.7377 79.6425 22.8998 79.6425 24.2185V32.2287H75.2016V30.2505ZM74.0098 25.3212C73.6451 25.3212 73.1892 25.3374 72.642 25.3699C72.095 25.4023 71.5695 25.4941 71.0652 25.6455C70.5611 25.7969 70.1321 26.0238 69.778 26.3266C69.4241 26.6292 69.2471 27.0508 69.2471 27.5913C69.2471 28.175 69.4937 28.6074 69.9872 28.8885C70.4806 29.1695 70.9955 29.3101 71.5318 29.3101C72.0038 29.3101 72.4597 29.2452 72.8995 29.1155C73.3393 28.9857 73.7309 28.802 74.0742 28.5642C74.4174 28.3264 74.6909 28.0237 74.8947 27.6561C75.0985 27.2886 75.2004 26.8563 75.2004 26.359V25.3212H74.0098ZM91.5166 21.1053C90.8079 20.2189 89.8745 19.7757 88.7164 19.7757C88.3087 19.7757 87.9122 19.873 87.5258 20.0675C87.1394 20.2621 86.9462 20.5972 86.9462 21.0728C86.9462 21.4621 87.1455 21.7485 87.5421 21.9323C87.9386 22.116 88.4429 22.2782 89.054 22.4187C89.6661 22.5592 90.3199 22.7106 91.0174 22.8727C91.7149 23.0348 92.3686 23.2889 92.9807 23.6348C93.5918 23.9808 94.0961 24.451 94.4927 25.0456C94.8902 25.64 95.0885 26.4346 95.0885 27.4291C95.0885 28.4453 94.8678 29.283 94.4286 29.9425C93.9883 30.6019 93.4261 31.1316 92.7387 31.5315C92.0524 31.9315 91.2807 32.2126 90.4226 32.3747C89.5644 32.5369 88.7164 32.618 87.8796 32.618C86.7856 32.618 85.6804 32.4612 84.565 32.1477C83.4496 31.8342 82.5057 31.2775 81.7334 30.4776L84.6616 27.2021C85.112 27.7642 85.6112 28.1912 86.1582 28.4831C86.7053 28.775 87.3438 28.9209 88.0728 28.9209C88.631 28.9209 89.1353 28.8398 89.5858 28.6776C90.0362 28.5156 90.2609 28.2182 90.2609 27.7858C90.2609 27.3751 90.0626 27.067 89.6661 26.8616C89.2685 26.6562 88.7652 26.4833 88.1531 26.3427C87.5421 26.2022 86.8873 26.0509 86.1908 25.8887C85.4933 25.7265 84.8385 25.4834 84.2274 25.159C83.6163 24.8347 83.112 24.3753 82.7149 23.7808C82.3179 23.1862 82.1196 22.3917 82.1196 21.3972C82.1196 20.4675 82.3073 19.6676 82.6826 18.9973C83.0581 18.3271 83.5513 17.7758 84.1634 17.3434C84.7744 16.911 85.477 16.5921 86.2711 16.3868C87.0642 16.1813 87.8695 16.0786 88.6839 16.0786C89.7139 16.0786 90.755 16.23 91.8054 16.5326C92.8567 16.8354 93.7474 17.3759 94.4764 18.1542L91.5166 21.1053ZM106.415 21.1053C105.707 20.2189 104.774 19.7757 103.616 19.7757C103.208 19.7757 102.812 19.873 102.425 20.0675C102.039 20.2621 101.846 20.5972 101.846 21.0728C101.846 21.4621 102.044 21.7485 102.442 21.9323C102.838 22.116 103.342 22.2782 103.954 22.4187C104.566 22.5592 105.219 22.7106 105.917 22.8727C106.614 23.0348 107.268 23.2889 107.88 23.6348C108.491 23.9808 108.996 24.451 109.392 25.0456C109.789 25.64 109.988 26.4346 109.988 27.4291C109.988 28.4453 109.767 29.283 109.328 29.9425C108.888 30.6019 108.325 31.1316 107.638 31.5315C106.952 31.9315 106.179 32.2126 105.321 32.3747C104.463 32.5369 103.616 32.618 102.779 32.618C101.685 32.618 100.58 32.4612 99.4645 32.1477C98.3491 31.8342 97.4056 31.2775 96.6328 30.4776L99.5611 27.2021C100.012 27.7642 100.511 28.1912 101.058 28.4831C101.605 28.775 102.243 28.9209 102.972 28.9209C103.531 28.9209 104.034 28.8398 104.484 28.6776C104.936 28.5156 105.16 28.2182 105.16 27.7858C105.16 27.3751 104.962 27.067 104.566 26.8616C104.168 26.6562 103.664 26.4833 103.053 26.3427C102.442 26.2022 101.787 26.0509 101.089 25.8887C100.393 25.7265 99.738 25.4834 99.1269 25.159C98.5148 24.8347 98.0115 24.3753 97.614 23.7808C97.2175 23.1862 97.0192 22.3917 97.0192 21.3972C97.0192 20.4675 97.2063 19.6676 97.5825 18.9973C97.9577 18.3271 98.4508 17.7758 99.0619 17.3434C99.674 16.911 100.377 16.5921 101.171 16.3868C101.964 16.1813 102.768 16.0786 103.583 16.0786C104.613 16.0786 105.654 16.23 106.705 16.5326C107.756 16.8354 108.647 17.3759 109.376 18.1542L106.415 21.1053ZM112.916 16.4678H117.356V18.5433H117.421C117.614 18.2623 117.867 17.9758 118.178 17.6839C118.488 17.3921 118.853 17.1272 119.272 16.8894C119.69 16.6516 120.145 16.457 120.639 16.3057C121.132 16.1543 121.658 16.0786 122.216 16.0786C123.374 16.0786 124.426 16.2787 125.369 16.6786C126.314 17.0786 127.123 17.6407 127.799 18.365C128.475 19.0892 128.995 19.9487 129.36 20.9432C129.725 21.9377 129.907 23.0294 129.907 24.2185C129.907 25.3212 129.74 26.3752 129.408 27.3805C129.075 28.3858 128.604 29.2776 127.993 30.056C127.38 30.8343 126.635 31.4559 125.756 31.9207C124.876 32.3855 123.879 32.618 122.763 32.618C121.755 32.618 120.816 32.4612 119.947 32.1477C119.079 31.8342 118.365 31.2991 117.808 30.5424H117.743V39.6228H112.916V16.4678ZM117.357 24.348C117.357 25.537 117.696 26.4991 118.371 27.2342C119.047 27.9693 119.997 28.3369 121.219 28.3369C122.442 28.3369 123.392 27.9693 124.067 27.2342C124.743 26.4991 125.081 25.537 125.081 24.348C125.081 23.1589 124.743 22.1968 124.067 21.4617C123.392 20.7266 122.442 20.359 121.219 20.359C119.997 20.359 119.047 20.7266 118.371 21.4617C117.696 22.1968 117.357 23.1589 117.357 24.348ZM132.804 7.71159H137.631V32.2287H132.804V7.71159ZM156.167 32.2287H151.533V30.0884H151.468C151.296 30.391 151.077 30.6936 150.808 30.9964C150.541 31.299 150.214 31.5693 149.827 31.8071C149.441 32.045 149.002 32.2395 148.507 32.3909C148.014 32.5422 147.479 32.6179 146.899 32.6179C145.676 32.6179 144.683 32.4287 143.922 32.0504C143.16 31.6719 142.571 31.1477 142.153 30.4775C141.734 29.8073 141.455 29.0182 141.316 28.1101C141.177 27.202 141.106 26.2183 141.106 25.1589V16.4677H145.933V24.1861C145.933 24.6401 145.949 25.1103 145.982 25.5967C146.014 26.0832 146.111 26.5318 146.272 26.9426C146.432 27.3534 146.679 27.6885 147.012 27.948C147.344 28.2074 147.821 28.3371 148.443 28.3371C149.066 28.3371 149.57 28.2236 149.956 27.9966C150.343 27.7696 150.638 27.4669 150.841 27.0885C151.045 26.7102 151.178 26.2832 151.244 25.8076C151.308 25.3319 151.34 24.8347 151.34 24.3158V16.4677H156.167V32.2287ZM168.427 21.1053C167.719 20.2189 166.786 19.7757 165.627 19.7757C165.219 19.7757 164.823 19.873 164.437 20.0675C164.05 20.2621 163.857 20.5972 163.857 21.0728C163.857 21.4621 164.056 21.7485 164.453 21.9323C164.849 22.116 165.354 22.2782 165.965 22.4187C166.577 22.5592 167.231 22.7106 167.928 22.8727C168.626 23.0348 169.279 23.2889 169.891 23.6348C170.503 23.9808 171.007 24.451 171.403 25.0456C171.801 25.64 171.999 26.4346 171.999 27.4291C171.999 28.4453 171.78 29.283 171.339 29.9425C170.899 30.6019 170.337 31.1316 169.649 31.5315C168.963 31.9315 168.191 32.2126 167.333 32.3747C166.475 32.5369 165.627 32.618 164.79 32.618C163.696 32.618 162.591 32.4612 161.476 32.1477C160.36 31.8342 159.417 31.2775 158.644 30.4776L161.572 27.2021C162.023 27.7642 162.522 28.1912 163.069 28.4831C163.616 28.775 164.255 28.9209 164.984 28.9209C165.542 28.9209 166.046 28.8398 166.497 28.6776C166.947 28.5156 167.172 28.2182 167.172 27.7858C167.172 27.3751 166.973 27.067 166.577 26.8616C166.179 26.6562 165.676 26.4833 165.064 26.3427C164.453 26.2022 163.798 26.0509 163.102 25.8887C162.404 25.7265 161.749 25.4834 161.138 25.159C160.527 24.8347 160.023 24.3753 159.625 23.7808C159.229 23.1862 159.03 22.3917 159.03 21.3972C159.03 20.4675 159.219 19.6676 159.594 18.9973C159.969 18.3271 160.462 17.7758 161.074 17.3434C161.685 16.911 162.388 16.5921 163.182 16.3868C163.975 16.1813 164.78 16.0786 165.595 16.0786C166.625 16.0786 167.666 16.23 168.717 16.5326C169.767 16.8354 170.658 17.3759 171.387 18.1542L168.427 21.1053Z" fill="#2D2D45"/>
<path fill-rule="evenodd" clip-rule="evenodd" d="M0.849761 28.2491L18.5842 10.4818C18.9341 10.1313 19.5031 10.1332 19.8552 10.486L27.5062 18.1511C28.5627 19.2094 28.5682 20.9197 27.5188 21.971L9.78436 39.7384C9.43449 40.0889 8.86551 40.087 8.51341 39.7342L0.862369 32.069C-0.193946 31.0107 -0.19964 29.3005 0.849761 28.2491Z" fill="url(#paint0_linear_16_813)"/>
<path fill-rule="evenodd" clip-rule="evenodd" d="M16.7355 27.6652L0.796 11.6961C-0.260416 10.6378 -0.266009 8.92755 0.783392 7.8762L8.3839 0.26161C8.73367 -0.0888422 9.30275 -0.0869556 9.65485 0.265823L27.5071 18.1512C28.5635 19.2095 28.5691 20.9197 27.5197 21.9711L19.9192 29.5857L17.3857 32.1239C18.4351 31.0725 18.4295 29.3623 17.3731 28.3039L16.7355 27.6652Z" fill="url(#paint1_linear_16_813)"/>
<defs>
<linearGradient id="paint0_linear_16_813" x1="14.942" y1="46.9469" x2="30.6861" y2="32.7669" gradientUnits="userSpaceOnUse">
<stop stop-color="#00749B"/>
<stop offset="1" stop-color="#005077"/>
</linearGradient>
<linearGradient id="paint1_linear_16_813" x1="-12.0215" y1="23.2619" x2="10.5973" y2="40.8527" gradientUnits="userSpaceOnUse">
<stop stop-color="#00CAF2"/>
<stop offset="1" stop-color="#009AE0"/>
</linearGradient>
</defs>
</svg>
